<svg width="201" height="201" viewBox="0 0 201 201" fill="none" xmlns="http://www.w3.org/2000/svg">
<path d="M160.493 180.671H180.483V200.671H100.483C45.2532 200.671 0.483154 155.901 0.483154 100.671C0.483154 45.4414 45.2532 0.671349 100.483 0.671349C155.713 0.671349 200.483 45.4414 200.483 100.671C200.496 116.197 196.888 131.512 189.946 145.399C183.004 159.287 172.92 171.364 160.493 180.671ZM100.483 80.6713C105.787 80.6713 110.875 78.5642 114.625 74.8135C118.376 71.0628 120.483 65.9757 120.483 60.6713C120.483 55.367 118.376 50.2799 114.625 46.5292C110.875 42.7785 105.787 40.6713 100.483 40.6713C95.1788 40.6713 90.0917 42.7785 86.341 46.5292C82.5903 50.2799 80.4832 55.367 80.4832 60.6713C80.4832 65.9757 82.5903 71.0628 86.341 74.8135C90.0917 78.5642 95.1788 80.6713 100.483 80.6713ZM60.4832 120.671C65.7875 120.671 70.8746 118.564 74.6253 114.813C78.376 111.063 80.4832 105.976 80.4832 100.671C80.4832 95.367 78.376 90.2799 74.6253 86.5292C70.8746 82.7785 65.7875 80.6713 60.4832 80.6713C55.1788 80.6713 50.0917 82.7785 46.341 86.5292C42.5903 90.2799 40.4832 95.367 40.4832 100.671C40.4832 105.976 42.5903 111.063 46.341 114.813C50.0917 118.564 55.1788 120.671 60.4832 120.671ZM140.483 120.671C145.787 120.671 150.875 118.564 154.625 114.813C158.376 111.063 160.483 105.976 160.483 100.671C160.483 95.367 158.376 90.2799 154.625 86.5292C150.875 82.7785 145.787 80.6713 140.483 80.6713C135.179 80.6713 130.092 82.7785 126.341 86.5292C122.59 90.2799 120.483 95.367 120.483 100.671C120.483 105.976 122.59 111.063 126.341 114.813C130.092 118.564 135.179 120.671 140.483 120.671ZM100.483 160.671C105.787 160.671 110.875 158.564 114.625 154.813C118.376 151.063 120.483 145.976 120.483 140.671C120.483 135.367 118.376 130.28 114.625 126.529C110.875 122.778 105.787 120.671 100.483 120.671C95.1788 120.671 90.0917 122.778 86.341 126.529C82.5903 130.28 80.4832 135.367 80.4832 140.671C80.4832 145.976 82.5903 151.063 86.341 154.813C90.0917 158.564 95.1788 160.671 100.483 160.671Z" fill="#985EC7"/>
</svg>
